GhettoPhysics: Will the Real Pimps and Hos Please Stand Up! is a 2010 docudrama film written and directed by William Arntz and E. Raymond Brown. The film is based on Brown's 2003 book, Will The Real Pimps and Hos Please Stand Up! ΓÇö Peeping the Multi-leveled Global Game.[1] The book and the film examine the interplay between Pimps and "Hos" and how that dynamic is the oldest and simplest expression of the ways in which power is wielded in today's world. The film uses documentary footage, animation, satire and dramatization to illustrate examples culled from the "hood" to Wall Street. Whether the players are real-life pimps or corporate executives, they are all playing the ΓÇ£gameΓÇ¥ and repeating the same power dynamics.



Ghetto Physics.mp4

General
Complete name                    : E:MediaVideoDocumentariesSocial AwarenessGhetto Physics.mp4
Format                           : MPEG-4
Format profile                   : Base Media
Codec ID                         : isom
File size                        : 1.38 GiB
Duration                         : 1h 32mn
Overall bit rate                 : 2 140 Kbps
Encoded date                     : UTC 2011-10-10 13:49:42
Tagged date                      : UTC 2011-10-11 13:50:55

Video
ID                               : 1
Format                           : AVC
Format/Info                      : Advanced Video Codec
Format profile                   : High@L3.1
Format settings, CABAC           : Yes
Format settings, ReFrames        : 4 frames
Codec ID                         : avc1
Codec ID/Info                    : Advanced Video Coding
Duration                         : 1h 32mn
Bit rate mode                    : Variable
Bit rate                         : 1 993 Kbps
Maximum bit rate                 : 7 690 Kbps
Width                            : 1 280 pixels
Height                           : 720 pixels
Display aspect ratio             : 16:9
Frame rate mode                  : Constant
Frame rate                       : 23.976 fps
Color space                      : YUV
Chroma subsampling               : 4:2:0
Bit depth                        : 8 bits
Scan type                        : Progressive
Bits/(Pixel*Frame)               : 0.090
Stream size                      : 1.29 GiB (93%)
Writing library                  : Vimeo Encoder
Encoded date                     : UTC 2011-10-10 13:49:42
Tagged date                      : UTC 2011-10-10 13:50:48

Audio
ID                               : 2
Format                           : AAC
Format/Info                      : Advanced Audio Codec
Format version                   : Version 4
Format profile                   : LC
Codec ID                         : 40
Duration                         : 1h 32mn
Bit rate mode                    : Variable
Bit rate                         : 144 Kbps
Maximum bit rate                 : 308 Kbps
Channel(s)                       : 2 channels
Channel positions                : Front: L R
Sampling rate                    : 44.1 KHz
Compression mode                 : Lossy
Stream size                      : 94.5 MiB (7%)
Encoded date                     : UTC 2011-10-10 13:50:33
Tagged date                      : UTC 2011-10-10 13:50:48

